<?xml version="1.0" standalone="no"?>
<!DOCTYPE svg PUBLIC "-//W3C//DTD SVG 20010904//EN"
 "http://www.w3.org/TR/2001/REC-SVG-20010904/DTD/svg10.dtd">
<svg version="1.0" xmlns="http://www.w3.org/2000/svg"
 width="245.000000pt" height="242.000000pt" viewBox="0 0 245.000000 242.000000"
 preserveAspectRatio="xMidYMid meet">

<g transform="translate(0.000000,242.000000) scale(0.100000,-0.100000)"
fill="#000000" stroke="none">
<path d="M1080 2289 c-137 -23 -305 -89 -430 -170 -232 -149 -411 -406 -475
-680 -41 -178 -27 -438 32 -604 130 -362 395 -603 778 -707 89 -25 339 -35
442 -19 339 53 650 277 802 578 74 148 109 284 118 454 13 265 -62 508 -221
720 -173 229 -430 383 -716 429 -77 12 -253 11 -330 -1z m150 -109 c-11 -20
-166 -273 -285 -465 -34 -55 -74 -121 -89 -147 -16 -27 -30 -48 -32 -48 -7 0
1 12 139 246 179 302 261 434 270 434 4 0 3 -9 -3 -20z m69 -695 c7 -115 14
-216 16 -222 5 -15 -39 -46 -66 -48 -28 -2 -38 16 -27 45 10 24 10 24 18 5 6
-13 9 -15 9 -5 3 65 10 473 12 685 l2 260 12 -255 c7 -140 18 -349 24 -465z
m331 135 c6 -11 8 -20 6 -20 -3 0 -10 9 -16 20 -6 11 -8 20 -6 20 3 0 10 -9
16 -20z m68 -122 c76 -136 103 -188 99 -188 -3 0 -22 30 -42 68 -21 37 -51 91
-67 120 -16 28 -27 52 -24 52 2 0 18 -24 34 -52z m-899 -25 c-12 -21 -27 -42
-32 -48 -11 -11 9 29 31 63 24 37 25 25 1 -15z m-48 -80 c-5 -10 -17 -27 -26
-38 -16 -19 -17 -19 -3 5 26 46 29 50 34 50 3 0 0 -8 -5 -17z m-61 -103 c-6
-11 -13 -20 -16 -20 -2 0 0 9 6 20 6 11 13 20 16 20 2 0 0 -9 -6 -20z m1213
-157 c153 -272 227 -411 227 -425 0 -19 -20 16 -180 312 -79 146 -145 268
-147 273 -2 4 -2 7 1 7 2 0 47 -75 99 -167z m-683 67 c11 -11 20 -30 20 -42 0
-19 -6 -23 -30 -24 -25 -1 -28 1 -19 13 21 25 4 22 -41 -6 -25 -15 -101 -59
-170 -98 -69 -38 -232 -131 -363 -206 -240 -139 -306 -172 -187 -95 36 23 115
74 175 113 276 179 406 264 475 312 82 57 110 63 140 33z m99 -9 c21 -21 18
-33 -5 -24 -38 14 -5 -10 79 -57 50 -30 135 -79 187 -110 52 -31 172 -100 265
-155 196 -113 282 -165 274 -165 -3 0 -91 44 -196 98 -105 53 -297 151 -427
217 l-236 120 0 34 c0 27 3 32 16 27 14 -5 15 -4 5 8 -11 13 -9 17 17 25 1 1
11 -8 21 -18z m-156 -520 c103 0 187 -4 187 -8 0 -7 -262 -5 -882 6 -43 0 -78
4 -78 9 0 4 132 4 292 1 161 -4 377 -7 481 -8z m350 -18 c-7 -2 -19 -2 -25 0
-7 3 -2 5 12 5 14 0 19 -2 13 -5z"/>
</g>
</svg>
